<?xml version="1.0" encoding="UTF-8" standalone="no"?>
<!-- Generator: Adobe Illustrator 22.0.1, SVG Export Plug-In . SVG Version: 6.00 Build 0)  -->

<svg
   xmlns:dc="http://purl.org/dc/elements/1.1/"
   xmlns:cc="http://creativecommons.org/ns#"
   xmlns:rdf="http://www.w3.org/1999/02/22-rdf-syntax-ns#"
   xmlns:svg="http://www.w3.org/2000/svg"
   xmlns="http://www.w3.org/2000/svg"
   xmlns:sodipodi="http://sodipodi.sourceforge.net/DTD/sodipodi-0.dtd"
   xmlns:inkscape="http://www.inkscape.org/namespaces/inkscape"
   version="1.1"
   id="Layer_1"
   x="0px"
   y="0px"
   viewBox="0 0 30 30"
   style="enable-background:new 0 0 30 30;"
   xml:space="preserve"
   inkscape:version="0.91 r13725"
   sodipodi:docname="wi-lightning.svg"><metadata
     id="metadata9"><rdf:RDF><cc:Work
         rdf:about=""><dc:format>image/svg+xml</dc:format><dc:type
           rdf:resource="http://purl.org/dc/dcmitype/StillImage" /></cc:Work></rdf:RDF></metadata><defs
     id="defs7" /><sodipodi:namedview
     pagecolor="#ffffff"
     bordercolor="#666666"
     borderopacity="1"
     objecttolerance="10"
     gridtolerance="10"
     guidetolerance="10"
     inkscape:pageopacity="0"
     inkscape:pageshadow="2"
     inkscape:window-width="640"
     inkscape:window-height="480"
     id="namedview5"
     showgrid="false"
     inkscape:zoom="7.8666667"
     inkscape:cx="15"
     inkscape:cy="15"
     inkscape:window-x="0"
     inkscape:window-y="0"
     inkscape:window-maximized="0"
     inkscape:current-layer="Layer_1" /><path
     d="M7.96,24.51h0.39l6.88-10.18c0.09-0.18,0.04-0.27-0.15-0.27h-2.84l2.99-5.45c0.09-0.18,0.02-0.27-0.2-0.27h-3.81  c-0.11,0-0.2,0.06-0.29,0.18l-2.78,7.4c-0.02,0.18,0.04,0.27,0.19,0.27h2.75L7.96,24.51z M16.46,18.18h0.27l5.22-7.67  c0.05-0.08,0.06-0.15,0.04-0.2s-0.08-0.07-0.17-0.07h-2.1l2.18-4.03c0.12-0.2,0.06-0.3-0.18-0.3h-2.74c-0.13,0-0.23,0.06-0.3,0.19  l-2.08,5.48c-0.03,0.09-0.03,0.16,0.01,0.21c0.04,0.05,0.1,0.07,0.19,0.07h2.04L16.46,18.18z"
     id="path3"
     style="fill:#ffffff" /></svg>