<?xml version="1.0" encoding="UTF-8" standalone="no"?>
<!-- Created with Inkscape (http://www.inkscape.org/) -->

<svg
   xmlns:dc="http://purl.org/dc/elements/1.1/"
   xmlns:cc="http://creativecommons.org/ns#"
   xmlns:rdf="http://www.w3.org/1999/02/22-rdf-syntax-ns#"
   xmlns:svg="http://www.w3.org/2000/svg"
   xmlns="http://www.w3.org/2000/svg"
   xmlns:sodipodi="http://sodipodi.sourceforge.net/DTD/sodipodi-0.dtd"
   xmlns:inkscape="http://www.inkscape.org/namespaces/inkscape"
   width="210mm"
   height="210mm"
   viewBox="0 0 744.09449 744.09448"
   id="svg2"
   version="1.1"
   inkscape:version="0.91 r13725"
   sodipodi:docname="wi-day-rain.svg">
  <defs
     id="defs4" />
  <sodipodi:namedview
     id="base"
     pagecolor="#ffffff"
     bordercolor="#666666"
     borderopacity="1.0"
     inkscape:pageopacity="0.0"
     inkscape:pageshadow="2"
     inkscape:zoom="0.66550463"
     inkscape:cx="371.2241"
     inkscape:cy="370.01883"
     inkscape:document-units="px"
     inkscape:current-layer="layer1"
     showgrid="false"
     inkscape:window-width="1366"
     inkscape:window-height="719"
     inkscape:window-x="0"
     inkscape:window-y="0"
     inkscape:window-maximized="1" />
  <metadata
     id="metadata7">
    <rdf:RDF>
      <cc:Work
         rdf:about="">
        <dc:format>image/svg+xml</dc:format>
        <dc:type
           rdf:resource="http://purl.org/dc/dcmitype/StillImage" />
        <dc:title />
      </cc:Work>
    </rdf:RDF>
  </metadata>
  <g
     inkscape:label="Layer 1"
     inkscape:groupmode="layer"
     id="layer1"
     transform="translate(0,-308.26772)">
    <path
       id="path3337"
       d="m 43.666047,737.2317 c 0,33.16553 11.470803,61.84251 34.661722,85.78152 23.190941,23.93904 51.369171,36.65666 85.033471,38.15284 2.74303,0 4.2392,-1.49618 4.2392,-4.23919 l 0,-33.4149 c 0,-2.74303 -1.49617,-4.23921 -4.2392,-4.23921 -21.4454,-0.99747 -39.64904,-9.72525 -54.61094,-25.68461 -14.961891,-15.95933 -22.442855,-34.91106 -22.442855,-56.35645 0,-20.44796 6.982221,-38.40222 21.196025,-53.86284 14.21382,-15.46062 31.66933,-24.18841 52.36664,-26.68205 l 13.21636,-1.24682 c 3.24174,0 4.98728,-1.49618 4.98728,-4.23921 l 1.74556,-13.46572 c 2.74303,-26.9314 13.96446,-49.62361 34.16301,-67.82726 20.19857,-18.20364 43.88823,-27.43015 71.069,-27.43015 27.18079,0 50.87046,9.22651 71.31838,27.43015 20.44794,18.20365 31.91872,40.89586 34.91109,67.82726 l 1.74556,14.21381 c 0,2.99237 1.49618,4.73794 4.23921,4.73794 l 40.39713,0 c 22.19347,0 41.14522,7.97967 57.35391,23.93903 16.20875,15.95936 24.18842,34.66173 24.18842,56.60586 0,21.69473 -7.48094,40.39712 -22.44286,56.35645 -14.96187,15.95936 -33.16552,24.43779 -54.36153,25.68461 -2.99238,0 -4.73794,1.49618 -4.73794,4.23921 l 0,33.4149 c 0,2.74301 1.49619,4.23919 4.73794,4.23919 33.16552,-0.99746 61.34375,-13.71505 84.5347,-37.65409 23.19095,-24.18841 34.66171,-52.86539 34.66171,-86.03094 0,-17.95425 -3.49108,-34.66172 -10.47328,-50.12232 19.45045,-24.18842 29.17569,-51.61856 29.17569,-82.5398 0,-23.68968 -5.98478,-45.63381 -17.70492,-65.83236 -11.72015,-20.19858 -27.67951,-36.15794 -47.87807,-47.87809 -20.19857,-11.72014 -41.89334,-17.45554 -65.33362,-17.45554 -38.90095,0 -71.06901,14.46318 -96.75361,43.38949 -20.44791,-10.97204 -42.89077,-16.45807 -67.57791,-16.45807 -35.16045,0 -66.58045,10.97205 -93.7612,32.9162 -27.1808,21.94409 -44.63635,49.87298 -52.36665,83.78661 -27.67951,6.48348 -50.371741,20.94666 -68.326007,43.38948 -17.954267,22.44286 -26.931416,47.87808 -26.931416,76.55507 z M 178.32313,908.29605 c 0,4.23919 1.24683,8.22903 3.98983,12.21887 2.74303,3.98984 6.73287,6.73286 12.21891,8.22906 2.74299,0.4987 4.98728,0.99746 6.73282,0.99746 9.72526,0 16.20875,-5.23668 19.20112,-15.95936 l 39.39967,-146.62659 c 1.74555,-5.98477 0.99745,-11.4708 -1.99493,-16.70745 -2.99239,-5.23666 -7.48096,-8.22907 -13.21635,-9.47587 -5.48603,-1.74557 -10.72268,-1.24685 -15.70999,1.74556 -4.98728,2.74299 -8.4784,6.98221 -10.22395,12.71761 L 179.3206,902.81003 c -0.49876,3.24175 -0.99747,4.98728 -0.99747,5.48602 z m 65.08426,76.8044 c 0,4.7379 1.24681,8.97697 3.74047,12.96696 2.49363,3.98979 6.73286,6.48349 12.96697,7.48099 2.74301,0.4986 4.98733,0.9974 6.4835,0.9974 3.98985,0 7.73031,-1.4962 11.22142,-4.2392 3.4911,-2.99237 5.73538,-6.98227 6.73286,-11.96953 l 59.8476,-222.68286 c 1.49618,-5.73541 0.99742,-11.22143 -1.74556,-15.95936 -2.74303,-4.73793 -6.98222,-8.22903 -12.46827,-9.97459 -5.73539,-1.74557 -11.2214,-1.24681 -16.20872,1.74556 -4.9873,2.743 -8.47839,6.98222 -9.97461,12.71761 L 244.15548,978.8662 c -0.49872,3.74053 -0.74809,5.9848 -0.74809,6.23425 z m 10.47333,-554.33829 c 0,5.98476 1.9949,10.97205 6.23411,15.21125 l 16.20871,16.45808 c 4.73794,3.7405 9.97462,5.48603 15.46065,5.48603 5.23664,0 10.22396,-1.99491 14.46317,-5.73538 4.23919,-3.98983 6.48348,-8.72776 6.48348,-14.71254 0,-5.98475 -1.99492,-11.47077 -5.98477,-15.95935 l -15.95935,-16.20873 c -4.48856,-4.23919 -9.47587,-6.23411 -14.96189,-6.23411 -5.98475,0 -11.22143,2.24427 -15.46062,6.48349 -4.23922,4.23918 -6.48349,9.47588 -6.48349,15.21126 z m 93.0131,478.03262 c 0,3.98984 1.24685,7.97968 3.7405,11.72014 2.49366,3.74048 6.48346,6.48349 11.47078,7.97969 2.74302,0.49873 4.98731,0.99746 6.23411,0.99746 4.23923,0 8.47843,-1.24682 12.2189,-3.74046 3.74047,-2.49367 6.23413,-6.48349 7.48093,-12.21889 l 39.39969,-146.62661 c 1.49619,-5.73539 0.99744,-11.22142 -1.74555,-15.95936 -2.74304,-4.98728 -6.98224,-8.22902 -12.46826,-9.97458 -5.98477,-1.74557 -11.22142,-1.24685 -16.20873,1.74556 -4.9873,2.74299 -8.22902,6.98221 -9.72523,12.71761 l -39.39968,147.37469 c -0.4987,3.74045 -0.99746,5.73537 -0.99746,5.98475 z m 40.6465,-367.56395 c 17.70492,-16.70746 38.15286,-24.93651 61.84252,-24.93651 24.43775,0 45.38443,8.72778 62.34124,25.93397 17.20618,17.20619 25.68458,38.15286 25.68458,62.83997 0,15.46063 -4.2392,30.92124 -12.96698,46.13252 -24.18839,-24.18839 -53.11474,-36.15792 -87.02836,-36.15792 l -8.22903,0 c -6.73287,-29.42505 -20.6973,-53.86283 -41.64397,-73.81203 z m 40.39713,-130.9166 c 0,5.73539 1.99492,10.72269 6.23412,14.71255 4.23921,3.98982 9.22653,5.98474 15.21127,5.98474 5.7354,0 10.72271,-1.99492 14.71252,-5.7354 3.98983,-3.98985 5.98476,-8.72776 5.98476,-14.71253 l 0,-51.36917 c 0,-6.4835 -1.99493,-11.72017 -5.73539,-15.71002 -3.98983,-3.98983 -8.72778,-5.98474 -14.71253,-5.98474 -6.2341,0 -11.47078,1.99491 -15.46063,6.23412 -3.98984,4.23921 -5.98475,9.22649 -5.98475,15.46064 l 0,51.11981 z m 137.89881,56.8552 c 0,5.98478 2.24429,10.97208 6.73287,14.71255 3.49111,3.98984 7.97968,5.98474 13.71506,6.48349 5.7354,0.49873 10.97205,-1.74555 15.46064,-6.48349 l 35.90853,-35.6592 c 4.48858,-4.23921 6.48351,-9.47586 6.48351,-15.70997 0,-5.98479 -1.99493,-11.22144 -6.23414,-15.21129 -4.23919,-3.98984 -9.22648,-5.98476 -15.21126,-5.98476 -5.23666,0 -9.97459,1.99492 -14.46315,6.23414 l -35.65919,35.90853 c -4.48858,4.23923 -6.73287,9.47589 -6.73287,15.71 z m 20.19857,295.49749 c 0,5.98475 1.99493,11.2214 5.98476,15.71 l 16.20873,15.70999 c 4.48856,3.49109 9.47586,5.23665 14.9619,5.23665 l 0.49872,0.49874 c 5.73541,0 10.47333,-1.99493 14.46317,-5.98478 3.98983,-3.98983 5.98476,-9.22649 5.98476,-15.21127 0,-5.98473 -2.24429,-10.72266 -6.48351,-14.46314 l -15.46062,-16.45809 c -4.48856,-3.98985 -9.72523,-5.98476 -15.46062,-5.98476 -5.73539,0 -10.72269,1.99491 -14.71253,6.23411 -3.98983,4.23923 -5.98476,8.72777 -5.98476,14.71255 z m 36.40729,-157.84801 c 0,5.98475 2.24429,10.72267 6.48347,14.71252 4.48858,4.48856 9.47589,6.4835 15.46065,6.4835 l 50.62107,0 c 5.98478,0 10.97206,-1.99494 15.21126,-6.23414 4.23923,-4.23921 6.23414,-9.22653 6.23414,-14.96188 0,-5.98478 -1.99491,-10.97206 -6.23414,-15.21127 -4.2392,-4.23921 -9.22648,-6.48349 -15.21126,-6.48349 l -50.62107,0 c -5.98476,0 -10.97207,2.24428 -15.46065,6.48349 -4.48855,4.23921 -6.48347,9.22649 -6.48347,15.21127 z"
       inkscape:connector-curvature="0"
       style="fill:#ffffff" />
  </g>
</svg>
