<?xml version="1.0" encoding="UTF-8" standalone="no"?>
<svg
   xmlns:dc="http://purl.org/dc/elements/1.1/"
   xmlns:cc="http://creativecommons.org/ns#"
   xmlns:rdf="http://www.w3.org/1999/02/22-rdf-syntax-ns#"
   xmlns:svg="http://www.w3.org/2000/svg"
   xmlns="http://www.w3.org/2000/svg"
   xmlns:sodipodi="http://sodipodi.sourceforge.net/DTD/sodipodi-0.dtd"
   xmlns:inkscape="http://www.inkscape.org/namespaces/inkscape"
   version="1.1"
   id="Layer_1"
   x="0px"
   y="0px"
   viewBox="0 0 30 30"
   style="enable-background:new 0 0 30 30;"
   xml:space="preserve"
   inkscape:version="1.0.1 (3bc2e813f5, 2020-09-07)"
   sodipodi:docname="wi-day-sunny.svg"
   inkscape:export-filename="D:\Development\weather_app_favicon.png"
   inkscape:export-xdpi="836.04364"
   inkscape:export-ydpi="836.04364"><metadata
     id="metadata9"><rdf:RDF><cc:Work
         rdf:about=""><dc:format>image/svg+xml</dc:format><dc:type
           rdf:resource="http://purl.org/dc/dcmitype/StillImage" /></cc:Work></rdf:RDF></metadata><defs
     id="defs7" /><sodipodi:namedview
     pagecolor="#ffffff"
     bordercolor="#666666"
     borderopacity="1"
     objecttolerance="10"
     gridtolerance="10"
     guidetolerance="10"
     inkscape:pageopacity="0"
     inkscape:pageshadow="2"
     inkscape:window-width="1920"
     inkscape:window-height="1001"
     id="namedview5"
     showgrid="false"
     inkscape:zoom="11.125147"
     inkscape:cx="14.14366"
     inkscape:cy="15.484018"
     inkscape:window-x="-9"
     inkscape:window-y="-9"
     inkscape:window-maximized="1"
     inkscape:current-layer="Layer_1"
     inkscape:document-rotation="0" /><path
     d="m 0.30603012,15.065605 c 0,-0.331841 0.11061371,-0.622202 0.34566784,-0.857256 0.23505413,-0.221227 0.52541514,-0.331841 0.82960284,-0.331841 h 2.8206496 c 0.3180144,0 0.5807219,0.110614 0.8019494,0.345668 0.2074007,0.235054 0.3180144,0.511588 0.3180144,0.843429 0,0.331841 -0.096787,0.608376 -0.3041877,0.84343 -0.2074007,0.235054 -0.483935,0.345668 -0.8019494,0.345668 H 1.4951275 c -0.3180144,0 -0.59454869,-0.110614 -0.82960282,-0.345668 -0.23505414,-0.235054 -0.35949456,-0.511589 -0.35949456,-0.84343 z m 3.95444008,9.581913 c 0,-0.318015 0.1106137,-0.594549 0.3180144,-0.84343 l 2.0325269,-1.97722 c 0.2074007,-0.221227 0.483935,-0.318014 0.8157761,-0.318014 0.3318412,0 0.6083754,0.110614 0.8296029,0.318014 0.2212274,0.207401 0.3318411,0.470109 0.3318411,0.788123 0,0.331841 -0.1106137,0.636029 -0.3318411,0.88491 l -1.9633934,1.963393 c -0.5668952,0.442455 -1.1337905,0.442455 -1.7006858,0 C 4.3710839,25.242067 4.2604702,24.965532 4.2604702,24.647518 Z m 0,-19.1361715 c 0,-0.3180144 0.1106137,-0.5945487 0.3180144,-0.8434296 0.2765343,-0.2350541 0.5668953,-0.3456678 0.8849097,-0.3456678 0.3041877,0 0.580722,0.1106137 0.8157761,0.3318411 l 1.9772201,2.0325269 c 0.2212274,0.2074007 0.3318411,0.483935 0.3318411,0.8157761 0,0.3318412 -0.1106137,0.6083754 -0.3318411,0.8296028 C 8.035163,8.5532235 7.7586288,8.6638372 7.4267876,8.6638372 7.0949465,8.6638372 6.8184122,8.5532235 6.6110115,8.331996 L 4.5923113,6.354776 C 4.3710839,6.1335486 4.2604702,5.8431876 4.2604702,5.5113465 Z m 3.525812,9.5542585 c 0,-1.285884 0.3180144,-2.488808 0.96787,-3.594945 C 9.4040077,10.364523 10.275091,9.4796133 11.395054,8.8297577 12.515018,8.1799022 13.704116,7.8618878 14.99,7.8618878 c 0.96787,0 1.89426,0.193574 2.792996,0.580722 0.88491,0.3871479 1.659206,0.8987363 2.295235,1.5485919 0.649855,0.6498553 1.161444,1.4103243 1.534765,2.2952343 0.373321,0.88491 0.566895,1.825126 0.566895,2.792996 0,1.299711 -0.318014,2.502635 -0.96787,3.608772 -0.649855,1.106137 -1.520938,1.97722 -2.627075,2.627076 -1.106138,0.649855 -2.309062,0.96787 -3.608773,0.96787 -1.299711,0 -2.502635,-0.318015 -3.608772,-0.96787 C 10.261264,20.665424 9.390181,19.794341 8.7403254,18.688204 8.1181233,17.56824 7.7862822,16.365316 7.7862822,15.065605 Z m 2.3505418,0 c 0,1.355018 0.470108,2.502635 1.424151,3.456679 0.940217,0.954043 2.087834,1.437978 3.442852,1.437978 1.355018,0 2.502635,-0.483935 3.456678,-1.437978 0.954043,-0.954044 1.437978,-2.101661 1.437978,-3.456679 0,-1.327364 -0.483935,-2.461155 -1.437978,-3.415198 -0.954043,-0.940217 -2.10166,-1.410325 -3.456678,-1.410325 -1.341192,0 -2.488809,0.470108 -3.429025,1.410325 -0.96787,0.954043 -1.437978,2.087834 -1.437978,3.415198 z m 3.677905,10.757183 c 0,-0.331841 0.110614,-0.608375 0.345668,-0.829602 0.235054,-0.221228 0.511589,-0.331841 0.829603,-0.331841 0.331841,0 0.622202,0.110613 0.84343,0.331841 0.221227,0.221227 0.331841,0.497761 0.331841,0.829602 v 2.751517 c 0,0.331841 -0.110614,0.622202 -0.345668,0.857256 -0.235054,0.235054 -0.511589,0.345668 -0.829603,0.345668 -0.318014,0 -0.608375,-0.110614 -0.829603,-0.345668 -0.235054,-0.235054 -0.345668,-0.525415 -0.345668,-0.857256 z m 0,-21.4314053 V 1.5707331 c 0,-0.3180145 0.110614,-0.59454874 0.345668,-0.82960287 0.235054,-0.23505413 0.511589,-0.35949455 0.84343,-0.35949455 0.331841,0 0.594548,0.11061371 0.829603,0.34566784 0.235054,0.23505413 0.345667,0.51158838 0.345667,0.82960288 v 2.8344763 c 0,0.3180144 -0.110613,0.5807219 -0.345667,0.8019494 -0.235055,0.2212274 -0.511589,0.3180144 -0.829603,0.3180144 -0.318015,0 -0.608376,-0.1106137 -0.829603,-0.3180144 -0.221228,-0.2074008 -0.359495,-0.483935 -0.359495,-0.8019494 z m 7.632346,18.2236083 c 0,-0.318014 0.110614,-0.580722 0.318015,-0.774296 0.2074,-0.221227 0.470108,-0.318014 0.774296,-0.318014 0.331841,0 0.608375,0.110613 0.829602,0.318014 l 2.018701,1.97722 c 0.221227,0.235054 0.331841,0.525415 0.331841,0.84343 0,0.318014 -0.110614,0.594548 -0.331841,0.815776 -0.553069,0.428628 -1.106137,0.428628 -1.659206,0 L 21.76509,23.513727 c -0.207401,-0.248881 -0.318015,-0.539242 -0.318015,-0.898736 z m 0,-15.0987711 c 0,-0.3456678 0.110614,-0.6222021 0.318015,-0.8157761 l 1.963393,-2.0325269 c 0.235054,-0.2212274 0.511588,-0.3318411 0.815776,-0.3318411 0.331841,0 0.608376,0.1106137 0.829603,0.3456678 0.235054,0.2350542 0.345668,0.5115885 0.345668,0.8296029 0,0.3456678 -0.110614,0.6360288 -0.331841,0.8572562 l -2.018701,1.9772201 c -0.24888,0.2212274 -0.525415,0.3318411 -0.829602,0.3318411 -0.318015,0 -0.566896,-0.1106137 -0.774296,-0.3318411 C 21.557689,8.1245953 21.447075,7.8480611 21.447075,7.5162199 Z m 3.124838,7.5493851 c 0,-0.331841 0.110613,-0.608375 0.331841,-0.857256 0.221227,-0.221227 0.483935,-0.331841 0.788122,-0.331841 h 2.792997 c 0.318014,0 0.594548,0.12444 0.829602,0.359494 0.235054,0.235055 0.359495,0.511589 0.359495,0.829603 0,0.318015 -0.124441,0.594549 -0.359495,0.829603 -0.235054,0.235054 -0.511588,0.345668 -0.829602,0.345668 h -2.792997 c -0.318014,0 -0.594548,-0.110614 -0.801949,-0.345668 -0.207401,-0.235054 -0.318014,-0.497762 -0.318014,-0.829603 z"
     id="path3"
     style="fill:#ffaa1c;fill-opacity:1;stroke-width:1.38267" /></svg>
